<svg xmlns="http://www.w3.org/2000/svg" viewBox="0 0 1920 1080" role="img" aria-label="Новый обучающий курс 2.0">
  <defs>
    <radialGradient id="dots" cx="0" cy="0" r="1" gradientUnits="userSpaceOnUse" gradientTransform="translate(320 210) rotate(36) scale(920 620)">
      <stop stop-color="#00F236" stop-opacity=".7"/>
      <stop offset=".55" stop-color="#00F236" stop-opacity=".16"/>
      <stop offset="1" stop-color="#00F236" stop-opacity="0"/>
    </radialGradient>
    <linearGradient id="bg" x1="0" y1="0" x2="1920" y2="1080" gradientUnits="userSpaceOnUse">
      <stop stop-color="#20262A"/>
      <stop offset=".58" stop-color="#1B2023"/>
      <stop offset="1" stop-color="#15191B"/>
    </linearGradient>
    <pattern id="dotPattern" width="42" height="42" patternUnits="userSpaceOnUse">
      <circle cx="6" cy="6" r="5" fill="#00F236" opacity=".32"/>
    </pattern>
    <filter id="softShadow" x="-30%" y="-30%" width="160%" height="160%">
      <feDropShadow dx="0" dy="20" stdDeviation="18" flood-color="#000" flood-opacity=".42"/>
    </filter>
  </defs>
  <rect width="1920" height="1080" fill="url(#bg)"/>
  <rect width="1180" height="1080" fill="url(#dotPattern)" opacity=".72"/>
  <rect width="1920" height="1080" fill="url(#dots)"/>
  <rect x="0" y="0" width="1920" height="1080" fill="#101416" opacity=".16"/>
  <g transform="translate(54 68)">
    <rect x="0" y="0" width="58" height="58" fill="#fff"/>
    <rect x="16" y="26" width="18" height="32" fill="#20D64D"/>
    <path d="M16 26h42v18H34V26Z" fill="#20D64D"/>
    <text x="76" y="26" fill="#fff" font-family="Arial, sans-serif" font-size="36" font-weight="900" letter-spacing="1">ПОЛЕЗНЫЕ</text>
    <text x="76" y="64" fill="#fff" font-family="Arial, sans-serif" font-size="36" font-weight="900" letter-spacing="1">ЛЮДИ</text>
    <text x="248" y="41" fill="#fff" font-family="Arial, sans-serif" font-size="18" font-weight="700">Союз</text>
    <text x="248" y="62" fill="#fff" font-family="Arial, sans-serif" font-size="18" font-weight="700">риэлторов</text>
  </g>
  <g text-anchor="middle" font-family="Arial, sans-serif" font-weight="900">
    <text x="960" y="355" fill="#00F236" font-size="154" letter-spacing="4">НОВЫЙ</text>
    <text x="960" y="530" fill="#fff" font-size="154" letter-spacing="4">ОБУЧАЮЩИЙ</text>
    <text x="830" y="705" fill="#fff" font-size="154" letter-spacing="4">КУРС</text>
  </g>
  <g filter="url(#softShadow)" transform="translate(1238 538) rotate(-7)">
    <rect width="226" height="126" rx="22" fill="#101416" stroke="#00F236" stroke-width="5"/>
    <text x="113" y="88" text-anchor="middle" fill="#00F236" font-family="Arial, sans-serif" font-size="88" font-weight="900">2.0</text>
  </g>
  <g fill="#fff" font-family="Arial, sans-serif" font-weight="900" font-size="58" text-anchor="middle">
    <text x="330" y="855">ВЕСЬ</text>
    <text x="330" y="925">ПРОШЛЫЙ</text>
    <text x="330" y="995">ОПЫТ</text>
    <rect x="615" y="820" width="3" height="110" fill="#fff" opacity=".78"/>
    <text x="960" y="855">СОВРЕМЕННЫЕ</text>
    <text x="960" y="925">ФИШКИ</text>
    <text x="960" y="995">И МАТЕРИАЛЫ</text>
    <rect x="1305" y="820" width="3" height="110" fill="#fff" opacity=".78"/>
    <text x="1580" y="855">НОВЫЙ</text>
    <text x="1580" y="925">ПОДХОД</text>
    <text x="1580" y="995">В ПОДАЧЕ</text>
  </g>
</svg>
